<svg width="38" height="38" viewBox="0 0 38 38" fill="none" xmlns="http://www.w3.org/2000/svg">
<path d="M19 0.600098C8.88361 0.600098 0.599976 8.88373 0.599976 19.0001C0.599976 29.1165 8.88361 37.4001 19 37.4001C29.1163 37.4001 37.4 29.1165 37.4 19.0001C37.4 8.88373 29.1163 0.600098 19 0.600098ZM19 2.2001C28.2436 2.2001 35.8 9.75646 35.8 19.0001C35.8 19.0751 35.7947 19.1488 35.7937 19.2235C35.2845 19.171 34.6955 19.1217 33.9468 19.0907C32.8794 19.0466 31.5343 19.0565 30.014 19.136C30.0738 18.7323 30.1145 18.3225 30.1156 17.9017C30.1931 16.4036 29.69 15.0021 28.8719 13.7642C29.0695 13.0812 29.3014 12.2123 29.3594 11.2267C29.4254 10.1032 29.3285 8.85751 28.4265 8.01572L28.1953 7.8001H27.8797C25.7332 7.8001 24.264 8.69867 23.3656 9.41104C22.0684 8.90892 20.6098 8.6001 19 8.6001C17.3811 8.6001 15.9084 8.91323 14.5578 9.41416C13.6599 8.70145 12.1894 7.8001 10.0406 7.8001H9.72654L9.49529 8.01416C8.61674 8.82996 8.5358 10.0415 8.5906 11.1595C8.63893 12.1453 8.85736 13.0418 9.05154 13.7579C8.21957 15.02 7.72029 16.4577 7.72029 17.8798C7.72029 18.281 7.75742 18.6722 7.81091 19.0579C5.31155 18.9769 3.41498 19.0427 2.2031 19.1532C2.20263 19.102 2.19998 19.0515 2.19998 19.0001C2.19998 9.75646 9.75634 2.2001 19 2.2001ZM10.5172 9.50479C12.1312 9.65773 13.3456 10.3785 13.9078 10.8782L14.2828 11.2095L14.7453 11.0204C16.0104 10.4995 17.4216 10.2001 19 10.2001C20.5784 10.2001 21.9899 10.501 23.1594 11.0126L23.6281 11.2188L24.0109 10.8782C24.5733 10.3783 25.7897 9.65734 27.4047 9.50479C27.6194 9.86077 27.806 10.367 27.7609 11.1329C27.707 12.0495 27.4618 13.0478 27.2765 13.6407L27.1562 14.0267L27.3953 14.3532C28.1869 15.4327 28.5905 16.6008 28.5219 17.836L28.5203 17.8579V17.8798C28.5203 19.8762 27.8014 21.474 26.2703 22.6579C24.7392 23.8419 22.3221 24.6001 18.9203 24.6001C15.5185 24.6001 13.0998 23.8419 11.5687 22.6579C10.0376 21.474 9.32029 19.8762 9.32029 17.8798C9.32029 16.708 9.74342 15.419 10.525 14.3532L10.7594 14.0345L10.6469 13.6548C10.4615 13.0245 10.2342 12.0034 10.189 11.0813C10.1514 10.3144 10.333 9.82972 10.5172 9.50479ZM6.10935 19.8157C6.67271 19.8193 7.31817 19.8417 7.96248 19.8642C8.02518 20.1198 8.09964 20.3704 8.18748 20.6157C5.53673 20.6733 3.56349 20.9477 2.34685 21.1829C2.29369 20.7776 2.25312 20.3684 2.22966 19.9548C3.12362 19.872 4.40015 19.8048 6.10935 19.8157ZM31.8906 19.861C33.5943 19.8412 34.8678 19.9314 35.7656 20.0267C35.7421 20.4116 35.7039 20.7927 35.6547 21.1704C34.3964 20.9309 32.3737 20.6572 29.6515 20.6126C29.7295 20.394 29.7935 20.1691 29.8515 19.9423C30.5701 19.9013 31.2707 19.8682 31.8906 19.861ZM29.314 21.4063C32.1725 21.4319 34.2682 21.7176 35.5328 21.9595C34.4602 27.9339 30.2067 32.8343 24.6 34.8313V30.6798C24.6 29.4121 24.1837 28.0143 23.4594 26.8485C23.2394 26.4946 22.9807 26.1599 22.6922 25.8595C24.5443 25.4936 26.0659 24.8392 27.25 23.9235C28.1543 23.2242 28.8376 22.3672 29.314 21.4063ZM8.52654 21.411C9.00402 22.3697 9.68761 23.2253 10.5906 23.9235C11.823 24.8765 13.4253 25.5424 15.3812 25.8985C15.1253 26.1615 14.8926 26.4502 14.6859 26.7548L14.6375 26.7126C14.6419 26.7076 14.2398 26.9088 13.639 26.9626C13.0383 27.0164 12.2973 27.0001 11.6406 27.0001C10.6606 27.0001 10.2289 26.5371 9.53904 25.6938C9.157 25.1789 8.69126 24.762 8.23904 24.4454C7.77599 24.1213 7.38098 23.8925 6.89216 23.811L6.82654 23.8001H6.75935C6.38602 23.8001 6.02476 23.8271 5.68748 24.2126C5.51883 24.4053 5.4026 24.7621 5.4781 25.0642C5.5536 25.3662 5.74466 25.5518 5.9156 25.6657C7.00898 26.3946 7.20221 27.8373 7.88748 29.1204C8.52741 30.3955 9.90851 31.0001 11.3203 31.0001H13.4V34.8313C7.79771 32.8359 3.54701 27.9416 2.47029 21.9735C3.6908 21.7356 5.73184 21.4512 8.52654 21.411ZM17.9594 26.2798H20.2C20.8502 26.2798 21.5443 26.798 22.1 27.6923C22.6556 28.5866 23 29.7874 23 30.6798V35.3126C21.7168 35.6288 20.3775 35.8001 19 35.8001C17.6224 35.8001 16.2831 35.6288 15 35.3126V30.6798C15 29.8072 15.3742 28.6091 15.9672 27.711C16.5601 26.8129 17.3091 26.2798 17.9594 26.2798ZM8.84685 27.2251C9.53947 27.9435 10.378 28.6001 11.6406 28.6001C12.2639 28.6001 13.042 28.6226 13.7812 28.5563C13.7839 28.5561 13.7864 28.555 13.789 28.5548C13.6916 28.8348 13.619 29.1165 13.5578 29.4001H11.3203C10.3336 29.4001 9.63659 29.0436 9.3156 28.4017L9.30935 28.3907L9.30466 28.3813C9.17314 28.1371 9.00049 27.6486 8.84685 27.2251Z" fill="#6C63FF"/>
</svg>
