<svg width="36" height="36" viewBox="0 0 36 36" fill="none" xmlns="http://www.w3.org/2000/svg">
<path d="M10.8 0.399902C5.08366 0.399902 0.400024 5.08354 0.400024 10.7999V25.1999C0.400024 30.9163 5.08366 35.5999 10.8 35.5999H25.2C30.9164 35.5999 35.6 30.9163 35.6 25.1999V10.7999C35.6 5.08354 30.9164 0.399902 25.2 0.399902H10.8ZM10.8 1.9999H25.2C30.0437 1.9999 34 5.95627 34 10.7999V25.1999C34 30.0435 30.0437 33.9999 25.2 33.9999H10.8C5.95639 33.9999 2.00002 30.0435 2.00002 25.1999V10.7999C2.00002 5.95627 5.95639 1.9999 10.8 1.9999ZM27.6 6.7999C26.72 6.7999 26 7.5199 26 8.3999C26 9.2799 26.72 9.9999 27.6 9.9999C28.48 9.9999 29.2 9.2799 29.2 8.3999C29.2 7.5199 28.48 6.7999 27.6 6.7999ZM18 9.1999C13.1637 9.1999 9.20002 13.1635 9.20002 17.9999C9.20002 22.8363 13.1637 26.7999 18 26.7999C22.8364 26.7999 26.8 22.8363 26.8 17.9999C26.8 13.1635 22.8364 9.1999 18 9.1999ZM18 10.7999C21.9637 10.7999 25.2 14.0363 25.2 17.9999C25.2 21.9635 21.9637 25.1999 18 25.1999C14.0364 25.1999 10.8 21.9635 10.8 17.9999C10.8 14.0363 14.0364 10.7999 18 10.7999Z" fill="#675EF0"/>
</svg>
