<svg width="24" height="23" viewBox="0 0 24 23" fill="none" xmlns="http://www.w3.org/2000/svg">
<path d="M21.8438 22.5C19.3021 22.5 16.776 21.875 14.2656 20.625C11.7552 19.375 9.5 17.75 7.5 15.75C5.5 13.75 3.875 11.4948 2.625 8.98438C1.375 6.47396 0.75 3.94792 0.75 1.40625C0.75 1.01042 0.885417 0.677083 1.15625 0.40625C1.42708 0.135417 1.76042 0 2.15625 0H6.53125C6.82292 0 7.07813 0.0989583 7.29688 0.296875C7.51562 0.494792 7.65625 0.760417 7.71875 1.09375L8.5625 5.03125C8.60417 5.32292 8.59896 5.58854 8.54688 5.82812C8.49479 6.06771 8.38542 6.27083 8.21875 6.4375L5.09375 9.59375C6.26042 11.5312 7.56771 13.2188 9.01562 14.6562C10.4635 16.0938 12.1042 17.3125 13.9375 18.3125L16.9062 15.25C17.1146 15.0208 17.3542 14.8594 17.625 14.7656C17.8958 14.6719 18.1667 14.6562 18.4375 14.7188L22.1562 15.5312C22.4688 15.5938 22.7292 15.75 22.9375 16C23.1458 16.25 23.25 16.5417 23.25 16.875V21.0938C23.25 21.4896 23.1146 21.8229 22.8438 22.0938C22.5729 22.3646 22.2396 22.5 21.8438 22.5ZM4.15625 7.875L6.6875 5.3125L5.96875 1.875H2.625C2.625 2.6875 2.75 3.57812 3 4.54688C3.25 5.51562 3.63542 6.625 4.15625 7.875ZM15.6875 19.2188C16.5417 19.6146 17.4687 19.9375 18.4688 20.1875C19.4688 20.4375 20.4375 20.5833 21.375 20.625V17.2812L18.1562 16.625L15.6875 19.2188Z" fill="#6C63FF"/>
</svg>
