<svg width="493" height="472" viewBox="0 0 493 472" fill="none" xmlns="http://www.w3.org/2000/svg">
<g clip-path="url(#clip0_2_166)">
<path d="M422.783 176.64C397.124 75.8004 308.464 3.00848 204.396 0.0888602C149.378 -1.45467 91.4845 16.7817 49.3335 80.5975C-26.0159 194.675 53.9639 273.506 109.724 310.965C136.662 329.099 160.936 350.903 181.841 375.746C219.505 420.415 291.961 475.922 378.254 388.951C440.799 325.914 439.874 243.809 422.783 176.64Z" fill="#F2F2F2"/>
<path d="M492.429 401.204C492.429 425.957 384.352 472 248.214 472C112.076 472 0 428.811 0 404.059C0 379.306 112.076 382.363 248.214 382.363C384.352 382.363 492.429 376.452 492.429 401.204Z" fill="#3F3D56"/>
<path opacity="0.1" d="M492.429 401.204C492.429 425.957 384.352 472 248.214 472C112.076 472 0 428.811 0 404.059C0 379.306 112.076 382.363 248.214 382.363C384.352 382.363 492.429 376.452 492.429 401.204Z" fill="black"/>
<path d="M246.5 448.592C382.638 448.592 493 428.526 493 403.773C493 379.021 382.638 358.955 246.5 358.955C110.362 358.955 0 379.021 0 403.773C0 428.526 110.362 448.592 246.5 448.592Z" fill="#3F3D56"/>
<path d="M339.821 251.347V371.212L359.882 403.887L361.409 406.372H440.565L442.164 251.347H339.821Z" fill="#2F2E41"/>
<path opacity="0.1" d="M339.821 251.347V371.212L359.882 403.887L361.113 251.347H339.821Z" fill="black"/>
<path d="M148.727 248.151V368.015L128.666 400.69L127.139 403.175H47.9827L46.3837 248.151H148.727Z" fill="#2F2E41"/>
<path opacity="0.1" d="M148.727 248.151V368.015L128.666 400.69L127.435 248.151H148.727Z" fill="black"/>
<path d="M466.151 245.753V252.945H35.9896V242.557L75.9671 221.781H430.97L466.151 245.753Z" fill="#2F2E41"/>
<path opacity="0.1" d="M466.151 245.753V252.945H35.9896V242.557L466.151 245.753Z" fill="black"/>
<path opacity="0.1" d="M97.5552 281.713H78.3659L70.3705 276.119H106.35L97.5552 281.713Z" fill="black"/>
<path opacity="0.1" d="M97.5552 304.887H78.3659L70.3705 299.293H106.35L97.5552 304.887Z" fill="black"/>
<path opacity="0.1" d="M97.5552 337.65H78.3659L70.3705 332.056H106.35L97.5552 337.65Z" fill="black"/>
<path opacity="0.1" d="M97.5552 370.412H78.3659L70.3705 364.819H106.35L97.5552 370.412Z" fill="black"/>
<path opacity="0.1" d="M390.992 284.909H410.182L418.177 279.316H382.197L390.992 284.909Z" fill="black"/>
<path opacity="0.1" d="M390.992 308.083H410.182L418.177 302.489H382.197L390.992 308.083Z" fill="black"/>
<path opacity="0.1" d="M390.992 340.846H410.182L418.177 335.252H382.197L390.992 340.846Z" fill="black"/>
<path opacity="0.1" d="M390.992 373.609H410.182L418.177 368.015H382.197L390.992 373.609Z" fill="black"/>
<path d="M304.207 201.784L301.539 218.802C301.539 218.802 288.41 225.773 297.642 225.978C306.874 226.183 350.367 225.978 350.367 225.978C350.367 225.978 358.778 225.978 345.443 218.597L342.776 200.758L304.207 201.784Z" fill="#3F3D56"/>
<path opacity="0.1" d="M295.784 225.793C297.577 224.345 299.505 223.07 301.54 221.986L304.207 204.968L342.776 205.004L345.443 221.781C347.634 222.911 349.7 224.27 351.606 225.834C353.319 225.444 355.19 223.992 345.443 218.597L342.776 200.758L304.207 201.784L301.539 218.802C301.539 218.802 290.506 224.66 295.784 225.793Z" fill="black"/>
<path d="M404.06 83.1691H242.512C239.138 83.1691 236.403 85.9029 236.403 89.2751V198.035C236.403 201.408 239.138 204.142 242.512 204.142H404.06C407.434 204.142 410.17 201.408 410.17 198.035V89.2751C410.17 85.9029 407.434 83.1691 404.06 83.1691Z" fill="#3F3D56"/>
<path d="M404.323 89.6278H242.249V180.255H404.323V89.6278Z" fill="#F2F2F2"/>
<path d="M323.286 87.7825C323.853 87.7825 324.312 87.3235 324.312 86.7573C324.312 86.1911 323.853 85.7321 323.286 85.7321C322.72 85.7321 322.26 86.1911 322.26 86.7573C322.26 87.3235 322.72 87.7825 323.286 87.7825Z" fill="#F2F2F2"/>
<path d="M410.169 187.431V198.035C410.17 198.837 410.012 199.631 409.705 200.372C409.398 201.113 408.948 201.786 408.38 202.353C407.813 202.92 407.139 203.37 406.398 203.677C405.657 203.984 404.862 204.142 404.06 204.141H242.512C241.71 204.142 240.915 203.984 240.174 203.677C239.433 203.37 238.759 202.92 238.192 202.353C237.624 201.786 237.174 201.113 236.867 200.372C236.56 199.631 236.402 198.837 236.403 198.035V187.431H410.169Z" fill="#3F3D56"/>
<path d="M323.286 199.733C325.439 199.733 327.184 197.989 327.184 195.837C327.184 193.686 325.439 191.942 323.286 191.942C321.133 191.942 319.388 193.686 319.388 195.837C319.388 197.989 321.133 199.733 323.286 199.733Z" fill="#F2F2F2"/>
<path d="M317.211 237.05V239.101H206.838V237.46L206.99 237.05L209.71 229.669H314.955L317.211 237.05Z" fill="#3F3D56"/>
<path d="M359.687 235.043C359.486 235.902 358.727 236.808 357.012 237.665C350.857 240.741 338.343 236.845 338.343 236.845C338.343 236.845 328.7 235.205 328.7 230.899C328.971 230.714 329.254 230.546 329.546 230.397C332.133 229.028 340.713 225.652 355.925 230.54C357.046 230.891 358.047 231.547 358.817 232.433C359.158 232.769 359.415 233.18 359.566 233.634C359.717 234.087 359.759 234.57 359.687 235.043Z" fill="#3F3D56"/>
<path opacity="0.1" d="M359.687 235.043C352.154 237.928 345.439 238.143 338.548 233.359C335.073 230.948 331.915 230.351 329.546 230.397C332.133 229.028 340.713 225.652 355.926 230.54C357.046 230.891 358.047 231.547 358.817 232.433C359.158 232.769 359.415 233.18 359.566 233.634C359.717 234.087 359.759 234.57 359.687 235.043Z" fill="black"/>
<path d="M350.242 233.359C351.715 233.359 352.909 232.992 352.909 232.539C352.909 232.086 351.715 231.719 350.242 231.719C348.769 231.719 347.575 232.086 347.575 232.539C347.575 232.992 348.769 233.359 350.242 233.359Z" fill="#F2F2F2"/>
<path opacity="0.1" d="M317.211 237.05V239.101H206.838V237.46L206.99 237.05H317.211Z" fill="black"/>
<path d="M225.443 110.842C237.509 110.842 247.292 101.066 247.292 89.0056C247.292 76.9457 237.509 67.1693 225.443 67.1693C213.376 67.1693 203.594 76.9457 203.594 89.0056C203.594 101.066 213.376 110.842 225.443 110.842Z" fill="#FFB9B9"/>
<path d="M209.344 99.9238V134.402H244.992C244.992 134.402 240.392 105.67 242.692 97.0506L209.344 99.9238Z" fill="#FFB9B9"/>
<path d="M280.065 146.47C280.065 146.47 246.142 129.805 246.142 128.656C246.142 127.507 242.692 120.036 240.392 120.036C238.092 120.036 218.543 113.715 207.619 122.909L206.469 130.38L164.496 157.963L175.995 199.911C175.995 199.911 183.47 207.956 181.17 213.703C178.87 219.449 182.895 248.756 182.895 248.756L273.165 245.883V206.807C273.165 206.807 276.04 197.613 277.765 194.74C279.49 191.866 277.765 183.247 277.765 183.247L291.564 166.008C291.564 166.008 289.84 149.918 280.065 146.47Z" fill="#D0CDE1"/>
<path opacity="0.1" d="M165.933 172.041L168.52 157.963C168.52 157.963 153.571 222.897 155.296 230.367C157.021 237.838 169.67 249.33 171.395 249.905C173.12 250.48 189.219 200.486 189.219 200.486L165.933 172.041Z" fill="black"/>
<path d="M174.27 156.239L164.496 157.963C164.496 157.963 149.546 222.897 151.271 230.367C152.996 237.838 165.646 249.33 167.371 249.905C169.095 250.48 185.195 200.486 185.195 200.486L174.27 156.239Z" fill="#D0CDE1"/>
<path opacity="0.1" d="M283.227 175.489L288.115 166.008C288.115 166.008 295.014 230.942 290.415 237.263C285.815 243.584 267.619 245.949 267.619 245.949L267.416 198.762L283.227 175.489Z" fill="black"/>
<path d="M284.09 158.537L291.564 166.008C291.564 166.008 298.464 230.942 293.864 237.263C289.265 243.584 271.069 245.949 271.069 245.949L270.865 198.762L284.09 158.537Z" fill="#D0CDE1"/>
<path d="M172.545 257.375C172.545 257.375 155.871 251.054 152.996 263.122C150.121 275.189 159.896 329.206 159.896 329.206C159.896 329.206 166.221 370.005 170.245 371.154C174.27 372.304 192.094 372.878 194.969 367.707C197.844 362.535 186.345 309.668 186.345 309.668L253.041 308.518C253.041 308.518 249.016 354.49 246.717 358.512C244.417 362.535 244.417 376.326 246.717 376.326C249.017 376.326 274.315 375.177 276.04 371.729C277.765 368.281 287.54 290.705 287.54 290.705C287.54 290.705 295.589 263.696 286.39 265.42C277.19 267.144 172.545 257.375 172.545 257.375Z" fill="#3F3D56"/>
<path d="M270.865 369.43C270.865 369.43 276.615 365.408 279.49 369.43C282.365 373.453 283.515 378.05 270.865 384.946C258.216 391.841 248.442 390.118 248.442 388.968V372.304L270.865 369.43Z" fill="#2F2E41"/>
<path d="M171.395 367.707C171.395 367.707 165.646 363.684 162.771 367.707C159.896 371.729 158.746 376.326 171.395 383.222C184.045 390.118 193.819 388.394 193.819 387.244V370.58L171.395 367.707Z" fill="#2F2E41"/>
<path d="M225.584 61.4721C223.408 61.3966 221.236 61.706 219.167 62.3863C217.563 63.0307 216.031 63.8409 214.595 64.8036L204.949 70.7986C204.131 71.1528 203.435 71.7414 202.95 72.4903C202.466 73.2391 202.214 74.1147 202.227 75.0064L201.021 84.0282C200.717 86.3049 200.437 88.7397 201.457 90.7982C202.308 92.5163 203.931 93.692 205.266 95.069C207.402 97.2819 208.839 100.074 209.4 103.097C210.09 106.864 209.648 111.4 212.63 113.804C214.245 115.105 216.447 115.351 218.518 115.472C224.181 115.803 229.863 115.584 235.485 114.82C236.378 114.753 237.25 114.509 238.048 114.102C239.062 113.502 239.701 112.444 240.297 111.429C242.451 107.764 244.671 103.865 244.648 99.6141C244.636 97.5112 244.098 95.2528 245.108 93.4082C245.642 92.6241 246.222 91.8721 246.844 91.1558C248.094 89.3992 248.338 87.1422 248.542 84.9956C249.193 78.1394 248.512 72.9219 243.456 68.0923C238.737 63.584 232.021 61.5136 225.584 61.4721Z" fill="#0C0930"/>
<path d="M171.914 325.263L152.725 422.753H162.319L180.709 326.862L171.914 325.263Z" fill="#2F2E41"/>
<path d="M233.48 333.255L245.473 445.128H253.469L246.273 330.058L233.48 333.255Z" fill="#2F2E41"/>
<path d="M266.262 330.058L283.052 404.374H291.048L275.057 328.46L266.262 330.058Z" fill="#2F2E41"/>
<path d="M202.297 330.058L199.899 389.191H206.295L211.093 330.058H202.297Z" fill="#2F2E41"/>
<path d="M158.322 314.875C158.322 314.875 145.529 229.372 181.509 226.975C217.489 224.577 268.66 226.975 268.66 226.975C268.66 226.975 298.244 224.577 289.449 314.875C289.449 314.875 297.444 341.245 225.484 338.848C153.524 336.451 158.322 314.875 158.322 314.875Z" fill="#6C63FF"/>
<path d="M486.145 349.792C486.145 364.702 477.276 369.908 466.336 369.908C455.395 369.908 446.526 364.702 446.526 349.792C446.526 334.882 466.336 315.914 466.336 315.914C466.336 315.914 486.145 334.882 486.145 349.792Z" fill="#6C63FF"/>
<path d="M465.817 355.149L474.26 339.711L465.848 353.191L465.94 347.581L471.759 336.411L465.964 346.096L466.128 336.004L472.359 327.113L466.154 334.418L466.256 315.914L465.64 339.36L459.33 329.707L465.563 341.339L464.973 352.609L464.956 352.31L457.652 342.111L464.933 353.366L464.86 354.776L464.846 354.797L464.853 354.913L463.355 369.953H465.356L465.596 368.738L472.86 357.509L465.614 367.627L465.817 355.149Z" fill="#3F3D56"/>
<path d="M478.987 402.252H455.37L449.267 367.775H483.763L478.987 402.252Z" fill="#2F2E41"/>
<path d="M131.962 169.168H82.8331V226.734H131.962V169.168Z" fill="#3F3D56"/>
<path d="M124.338 178.101H90.4565V217.802H124.338V178.101Z" fill="#F2F2F2"/>
</g>
<defs>
<clipPath id="clip0_2_166">
<rect width="493" height="472" fill="white"/>
</clipPath>
</defs>
</svg>
