<svg width="38" height="38" viewBox="0 0 38 38" fill="none" xmlns="http://www.w3.org/2000/svg">
<path d="M19 0.600098C8.83998 0.600098 0.599977 8.8401 0.599977 19.0001C0.599977 22.2801 1.47998 25.3195 2.99998 27.9595L0.599977 36.3595C0.519977 36.5995 0.599352 36.9195 0.759352 37.1595C0.999352 37.3995 1.31935 37.4001 1.55935 37.4001L10.3594 35.2407C12.9194 36.6007 15.88 37.4001 19 37.4001C29.16 37.4001 37.4 29.1601 37.4 19.0001C37.4 8.8401 29.16 0.600098 19 0.600098ZM19 2.2001C28.28 2.2001 35.8 9.7201 35.8 19.0001C35.8 28.2801 28.28 35.8001 19 35.8001C16.04 35.8001 13.2406 35.0007 10.8406 33.6407C10.6806 33.5607 10.4397 33.4795 10.2797 33.5595L2.59998 35.4798L4.59998 28.1204C4.67998 27.8804 4.60029 27.7198 4.52029 27.4798C3.08029 24.9998 2.19998 22.1201 2.19998 19.0001C2.19998 9.7201 9.71998 2.2001 19 2.2001ZM13.4906 9.39072C13.3406 9.38072 13.2406 9.4001 13.2406 9.4001H12.2797C11.7997 9.4001 11.0806 9.5601 10.4406 10.2001C10.0406 10.6001 8.59998 12.0401 8.59998 14.6001C8.59998 17.3201 10.4397 19.6398 10.6797 19.8798C10.6797 19.8798 11 20.2807 11.4 20.8407C11.8 21.4007 12.3597 22.0407 13.0797 22.8407C14.5197 24.3607 16.5197 26.1195 19.0797 27.1595C20.1997 27.6395 21.1597 27.9601 21.8797 28.2001C23.1597 28.6001 24.3606 28.5207 25.2406 28.4407C25.8806 28.3607 26.6003 28.0395 27.3203 27.5595C28.0403 27.0795 28.7597 26.5204 29.0797 25.7204C29.3197 25.0804 29.3997 24.5207 29.4797 24.0407V23.4001C29.4797 23.1601 29.4006 23.1607 29.2406 22.8407C28.8406 22.2007 28.4394 22.2007 27.9594 22.0407C27.7194 21.8807 26.9994 21.5607 26.3594 21.2407C25.6394 20.9207 25.0797 20.6007 24.6797 20.4407C24.4397 20.3607 24.1203 20.1998 23.7203 20.2798C23.3203 20.3598 22.9197 20.6001 22.6797 21.0001C22.4397 21.3201 21.5606 22.4395 21.2406 22.7595L21.1594 22.6798C20.8394 22.5198 20.36 22.3607 19.8 22.0407C19.16 21.7207 18.4394 21.2407 17.5594 20.4407C16.2794 19.3207 15.3994 17.9598 15.1594 17.4798C15.3994 17.1598 15.7197 16.8401 15.8797 16.6001C15.9597 16.5201 16.0247 16.4395 16.0797 16.3595C16.1347 16.2795 16.1803 16.2004 16.2203 16.1204C16.3003 15.9604 16.3606 15.8007 16.4406 15.6407C16.7606 15.0807 16.6006 14.4404 16.4406 14.1204C16.4406 14.1204 16.36 13.8807 16.2 13.6407C16.12 13.4007 15.96 12.9998 15.8 12.6798C15.48 11.9598 15.16 11.1598 15 10.6798C14.76 10.1198 14.4406 9.71947 14.0406 9.55947C13.8406 9.43947 13.6406 9.40072 13.4906 9.39072ZM12.2797 11.0001H13.1594H13.3203C13.3203 11.0001 13.3997 11.0804 13.4797 11.3204C13.6397 11.8004 14.0397 12.6004 14.2797 13.3204C14.4397 13.6404 14.5997 14.0398 14.6797 14.2798C14.7597 14.5198 14.8403 14.6807 14.9203 14.8407C14.9203 14.9207 15 14.9204 15 14.9204C14.84 15.2404 14.84 15.3195 14.6 15.5595C14.36 15.8795 14.0394 16.1995 13.9594 16.3595C13.8794 16.5195 13.6397 16.6801 13.4797 17.0001C13.3197 17.3201 13.4006 17.8798 13.6406 18.2798C13.9606 18.7598 14.9206 20.3604 16.4406 21.7204C17.4006 22.6004 18.28 23.1598 19 23.4798C19.72 23.8798 20.2806 24.0404 20.4406 24.1204C20.7606 24.2804 21.0797 24.3595 21.4797 24.3595C21.8797 24.3595 22.2006 24.0401 22.4406 23.8001C22.7606 23.4801 23.5594 22.5198 23.9594 21.8798L24.1203 21.9595C24.1203 21.9595 24.3597 22.0401 24.6797 22.2001C24.9997 22.3601 25.3203 22.5198 25.7203 22.6798C26.4403 22.9998 27.0803 23.3198 27.3203 23.4798L27.8 23.7204V23.9595C27.8 24.2795 27.7194 24.7607 27.5594 25.2407C27.4794 25.4807 27.0003 25.9598 26.5203 26.2798C25.9603 26.5998 25.3197 26.8404 25.0797 26.9204C24.3597 27.0004 23.4806 27.0795 22.4406 26.7595C21.8006 26.5195 20.92 26.2801 19.8 25.8001C17.56 24.8401 15.7194 23.2401 14.3594 21.8001C13.7194 21.0801 13.1594 20.4395 12.7594 19.9595C12.3594 19.4795 12.2006 19.1601 12.0406 19.0001C11.7206 18.6801 10.2 16.5998 10.2 14.6798C10.2 12.6798 11.1606 11.8804 11.6406 11.3204C11.8806 11.0004 12.1997 11.0001 12.2797 11.0001Z" fill="#6C63FF"/>
</svg>
